# xmcd CD database file
#
# Track frame offsets:
#	150
#	1552
#	19657
#
# Disc length: 496 seconds
#
# Revision: 1
# Processed by: cddbd v1.5.1PL0 Copyright (c) Steve Scherf et al.
# Submitted via: CDex 1.51
#
DISCID=0e01ee03
DTITLE=Holly Cole - Rosemount CD Sampler
DYEAR=2004
DGENRE=Jazz
TTITLE0=Intro
TTITLE1=Come Fly With Me
TTITLE2=Make It Go Away
EXTD=MAXI CD - JKP 04\nPromo-CD YEAR: 2004
EXTT0=
EXTT1=
EXTT2=
PLAYORDER=
